<?xml version="1.0" encoding="UTF-8"?>
<svg id="_Слой_1" data-name="Слой 1" xmlns="http://www.w3.org/2000/svg" viewBox="0 0 180.24 180.24">
  <defs>
    <style>
      .cls-1, .cls-2 {
        stroke-width: 0px;
      }

      .cls-2 {
        fill: none;
      }
    </style>
  </defs>
  <path class="cls-1" d="m150.1,5.48c-3.64-3.17-8.94-4.65-17.15-4.83-7.46-.17-16.32,1.45-26.37,4.75-1.5.53-2.71,1.37-3.77,2.41-10.22,9.59-20.15,19.77-29.54,30.26l-.72.79c-.2.23-.23.56-.09.81.15.26.47.4.76.33l1.05-.23c15.13-3.23,30.41-5.71,45.4-7.34.99-.12,2.01.21,2.74.89.74.68,1.15,1.65,1.13,2.66-.24,14.88.3,29.83,1.62,44.43l.08.96c.03.3.23.53.53.61.05.02.1.02.16.03.21,0,.44-.1.59-.3l.54-.78c8.45-12.04,17.64-23.76,27.31-34.85,1.09-1.24,1.37-2.01,1.57-3.13,3.03-19.44-1.67-33.82-5.86-37.47Z"/>
  <path class="cls-1" d="m82.39,132.97l-1.2.4c-7.74,2.57-19.2,6.54-29.48,11.27-.55.26-.91.99-.91.99-.2.44-.43.99-.69,1.6l-.03.08c-1.16,2.62-2.74,6.56-3.43,8.17l-.53,1.27c-.09.2-.03.43.13.58.1.1.21.15.34.15.07,0,.15-.02.23-.05l1.24-.59c2.82-1.33,6.38-3.36,10.1-5.14l.13-.07c7.1-3.36,15.11-7.17,19.93-9.47,0,0,.78-.41,1.17-1.19l3.61-7.25c.1-.18.07-.41-.07-.58-.13-.17-.36-.23-.56-.17Z"/>
  <path class="cls-1" d="m51.31,129.13c.51-.98,2.84-5.48,3.37-6.48l.1-.18c15.61-29.44,34.64-57.22,56.53-82.54l.61-.71c.18-.21.21-.54.08-.79-.14-.26-.43-.39-.71-.36l-.92.13c-14.37,1.98-28.91,4.72-43.25,8.15-1.43.39-2.34,1.33-2.54,1.54-10.73,12.84-20.88,26.35-30.2,40.21-.46.71-.62,1.62-.5,2.38.1.74,2.34,18.04,5.76,31.32-8.46,24.35-16.02,56.45-16.02,56.45-.07.21-.02.43.1.61.13.18.33.28.56.28h4.82c.31,0,.58-.18.69-.46l.33-.9c4.92-13.42,10.53-26.67,16.73-39.59,1.44-2.99,4.47-9.07,4.47-9.07Z"/>
  <path class="cls-1" d="m118.57,39.67l-.02-.92c-.01-.3-.2-.54-.46-.64-.26-.1-.57-.02-.77.2l-.61.69c-25.58,29.58-47.08,62.41-63.9,97.58l-.39.82c-.13.26-.09.58.11.79.13.13.31.21.49.21.09,0,.18-.02.28-.05l.84-.34c14.37-5.95,29.04-11.1,43.61-15.33.87-.25,1.61-.87,2.03-1.68,6.39-12.45,21.22-36.57,21.22-36.57.37-.54.28-1.35.28-1.35,0,0-2.54-28.83-2.71-43.42Z"/>
  <rect class="cls-2" width="180.24" height="180.24"/>
</svg>